<?xml version="1.0" encoding="UTF-8"?>
<!DOCTYPE svg PUBLIC "-//W3C//DTD SVG 1.1//EN" "http://www.w3.org/Graphics/SVG/1.1/DTD/svg11.dtd">
<svg xmlns="http://www.w3.org/2000/svg" version="1.1" width="587px" height="438px" style="shape-rendering:geometricPrecision; text-rendering:geometricPrecision; image-rendering:optimizeQuality; fill-rule:evenodd; clip-rule:evenodd" xmlns:xlink="http://www.w3.org/1999/xlink">
<g><path style="opacity:1" fill="#fdfdfd" d="M -0.5,-0.5 C 195.167,-0.5 390.833,-0.5 586.5,-0.5C 586.5,145.5 586.5,291.5 586.5,437.5C 390.833,437.5 195.167,437.5 -0.5,437.5C -0.5,291.5 -0.5,145.5 -0.5,-0.5 Z"/></g>
<g><path style="opacity:1" fill="#fdfcfb" d="M 355.5,29.5 C 357.631,30.3138 359.964,30.8138 362.5,31C 362.996,35.6894 365.663,37.8561 370.5,37.5C 370.337,39.8568 370.503,42.1902 371,44.5C 372.635,45.7256 374.135,47.059 375.5,48.5C 372.686,52.5816 373.353,56.0816 377.5,59C 373.287,61.8974 372.62,65.3974 375.5,69.5C 371.058,71.8443 369.391,75.5109 370.5,80.5C 365.598,79.9006 362.932,82.0673 362.5,87C 358.223,86.5254 355.223,88.1921 353.5,92C 349.09,90.7155 345.09,91.5488 341.5,94.5C 338.698,91.4061 335.364,90.7395 331.5,92.5C 329.6,91.5529 328.267,90.0529 327.5,88C 325.19,87.5034 322.857,87.3367 320.5,87.5C 320.327,82.4237 317.661,80.0903 312.5,80.5C 313.648,75.561 311.981,72.061 307.5,70C 309.929,67.003 309.929,64.1697 307.5,61.5C 307.047,60.5416 306.381,59.7083 305.5,59C 310.027,56.2487 310.694,52.7487 307.5,48.5C 308.436,47.0256 309.77,46.0256 311.5,45.5C 312.48,42.9135 312.813,40.2469 312.5,37.5C 317.091,37.7451 319.758,35.5784 320.5,31C 322.5,30.6667 324.5,30.3333 326.5,30C 328.043,28.2863 329.71,26.7863 331.5,25.5C 335.263,27.0599 338.596,26.3932 341.5,23.5C 344.302,26.5939 347.636,27.2605 351.5,25.5C 353.279,26.3936 354.612,27.727 355.5,29.5 Z"/></g>
<g><path style="opacity:1" fill="#d19c72" d="M 327.5,42.5 C 334.514,43.0049 337.68,46.6716 337,53.5C 331.67,60.3107 326.67,59.9773 322,52.5C 321.477,47.8799 323.31,44.5466 327.5,42.5 Z"/></g>
<g><path style="opacity:1" fill="#d8a176" d="M 348.5,42.5 C 351.244,43.0717 352.077,44.7383 351,47.5C 345.601,55.9083 340.601,64.575 336,73.5C 332.953,76.3099 331.62,75.6432 332,71.5C 337.512,61.806 343.012,52.1393 348.5,42.5 Z"/></g>
<g><path style="opacity:1" fill="#c38d64" d="M 357.5,25.5 C 359.631,26.3138 361.964,26.8138 364.5,27C 361.688,28.5489 358.688,29.3822 355.5,29.5C 354.612,27.727 353.279,26.3936 351.5,25.5C 347.636,27.2605 344.302,26.5939 341.5,23.5C 338.596,26.3932 335.263,27.0599 331.5,25.5C 329.71,26.7863 328.043,28.2863 326.5,30C 324.5,30.3333 322.5,30.6667 320.5,31C 319.758,35.5784 317.091,37.7451 312.5,37.5C 312.813,40.2469 312.48,42.9135 311.5,45.5C 309.77,46.0256 308.436,47.0256 307.5,48.5C 310.694,52.7487 310.027,56.2487 305.5,59C 306.381,59.7083 307.047,60.5416 307.5,61.5C 307.027,62.9063 306.027,63.573 304.5,63.5C 303.406,62.4183 302.073,61.7517 300.5,61.5C 287.204,65.4236 273.871,69.0902 260.5,72.5C 260.541,70.2547 261.375,69.5881 263,70.5C 264.102,69.051 265.269,67.7177 266.5,66.5C 268.954,65.3794 271.621,64.546 274.5,64C 271.631,60.9621 268.631,58.1288 265.5,55.5C 265.392,53.4862 266.058,51.8195 267.5,50.5C 271.146,53.4789 274.479,56.8123 277.5,60.5C 279.207,54.5436 281.207,48.7103 283.5,43C 286.436,43.8931 288.936,45.7264 291,48.5C 293.621,47.0085 296.455,46.3418 299.5,46.5C 299.249,50.2488 298.583,53.9155 297.5,57.5C 300.325,57.9193 302.491,56.9193 304,54.5C 303.957,51.4368 303.623,48.4368 303,45.5C 304.667,44.5 306.333,43.5 308,42.5C 308.182,39.7737 308.682,37.1071 309.5,34.5C 311.382,33.9067 313.215,33.2401 315,32.5C 315.303,30.1116 316.137,27.9449 317.5,26C 320.226,25.8184 322.893,25.3184 325.5,24.5C 327.74,19.831 330.907,19.1643 335,22.5C 337.058,20.9317 339.225,19.5983 341.5,18.5C 343.562,19.7295 345.729,20.7295 348,21.5C 350.478,20.6681 352.978,20.5014 355.5,21C 356.582,22.3297 357.249,23.8297 357.5,25.5 Z"/></g>
<g><path style="opacity:1" fill="#fdfbf9" d="M 327.5,47.5 C 332.159,47.0146 333.492,48.848 331.5,53C 326.728,53.8104 325.395,51.9771 327.5,47.5 Z"/></g>
<g><path style="opacity:1" fill="#faf6f3" d="M 285.5,49.5 C 286.837,50.3149 287.837,51.4815 288.5,53C 290.567,53.5356 292.401,53.0356 294,51.5C 293.964,58.775 290.131,62.1083 282.5,61.5C 283.5,57.5007 284.5,53.5007 285.5,49.5 Z"/></g>
<g><path style="opacity:1" fill="#fcfaf8" d="M 265.5,55.5 C 268.631,58.1288 271.631,60.9621 274.5,64C 271.621,64.546 268.954,65.3794 266.5,66.5C 263.884,65.5202 261.551,64.0202 259.5,62C 261.219,60.9431 263.053,60.1097 265,59.5C 265.49,58.2068 265.657,56.8734 265.5,55.5 Z"/></g>
<g><path style="opacity:1" fill="#a4714c" d="M 217.5,84.5 C 217.662,86.5273 217.495,88.5273 217,90.5C 216.617,91.056 216.117,91.3893 215.5,91.5C 212.834,82.8348 210.167,74.1682 207.5,65.5C 201.952,63.3731 196.285,61.5398 190.5,60C 187.078,58.5945 186.745,56.7612 189.5,54.5C 196.172,56.6677 202.839,58.8344 209.5,61C 213.158,68.4491 215.824,76.2824 217.5,84.5 Z"/></g>
<g><path style="opacity:1" fill="#b9845b" d="M 267.5,50.5 C 266.058,51.8195 265.392,53.4862 265.5,55.5C 265.657,56.8734 265.49,58.2068 265,59.5C 263.053,60.1097 261.219,60.9431 259.5,62C 261.551,64.0202 263.884,65.5202 266.5,66.5C 265.269,67.7177 264.102,69.051 263,70.5C 261.375,69.5881 260.541,70.2547 260.5,72.5C 252.86,74.66 245.193,76.66 237.5,78.5C 238.224,81.8426 239.057,85.176 240,88.5C 240.561,89.0219 241.228,89.3552 242,89.5C 249.772,87.1856 257.606,85.1856 265.5,83.5C 266.552,83.3505 267.552,83.5172 268.5,84C 266.365,84.8763 265.031,86.3763 264.5,88.5C 260.214,89.6244 255.881,90.6244 251.5,91.5C 249.955,92.2297 249.122,93.563 249,95.5C 248.329,96.2524 247.496,96.5858 246.5,96.5C 246.144,95.1301 245.31,94.1301 244,93.5C 241.616,94.7192 239.283,94.7192 237,93.5C 234.891,87.6152 233.558,81.6152 233,75.5C 241.802,73.0122 250.635,70.5122 259.5,68C 257.333,65.8333 255.167,63.6667 253,61.5C 252.333,60.5 252.333,59.5 253,58.5C 255.124,57.7728 257.291,57.1062 259.5,56.5C 260.932,54.1838 261.932,51.6838 262.5,49C 264.674,48.1231 266.341,48.6231 267.5,50.5 Z"/></g>
<g><path style="opacity:1" fill="#d8a278" d="M 350.5,59.5 C 359.261,59.4177 362.428,63.4177 360,71.5C 354.513,77.1327 349.846,76.4661 346,69.5C 345.333,67.8333 345.333,66.1667 346,64.5C 347.366,62.6383 348.866,60.9717 350.5,59.5 Z"/></g>
<g><path style="opacity:1" fill="#faf9f7" d="M 304.5,63.5 C 304.145,66.0667 303.479,68.5667 302.5,71C 302.645,71.772 302.978,72.4387 303.5,73C 290.695,76.531 278.028,80.031 265.5,83.5C 257.606,85.1856 249.772,87.1856 242,89.5C 241.228,89.3552 240.561,89.0219 240,88.5C 239.057,85.176 238.224,81.8426 237.5,78.5C 245.193,76.66 252.86,74.66 260.5,72.5C 273.871,69.0902 287.204,65.4236 300.5,61.5C 302.073,61.7517 303.406,62.4183 304.5,63.5 Z"/></g>
<g><path style="opacity:1" fill="#fdfcfc" d="M 251.5,91.5 C 255.881,90.6244 260.214,89.6244 264.5,88.5C 279.048,84.1227 293.714,80.1227 308.5,76.5C 308.337,78.8568 308.503,81.1902 309,83.5C 311.175,84.2546 313.341,85.088 315.5,86C 316.167,88 316.833,90 317.5,92C 320.426,92.2178 323.26,92.7178 326,93.5C 329.233,106.167 332.399,118.834 335.5,131.5C 311.849,137.494 288.182,143.494 264.5,149.5C 259.99,131.128 255.324,112.795 250.5,94.5C 250.685,93.4163 251.018,92.4163 251.5,91.5 Z"/></g>
<g><path style="opacity:1" fill="#d19a70" d="M 357.5,25.5 C 360.187,25.3359 362.854,25.5026 365.5,26C 366.525,28.0715 367.358,30.2381 368,32.5C 369.785,33.2401 371.618,33.9067 373.5,34.5C 373.493,39.6093 375.66,43.276 380,45.5C 380.682,47.9383 380.182,50.1049 378.5,52C 379.434,54.5909 380.767,56.9243 382.5,59C 381.167,61 379.833,63 378.5,65C 381.913,69.8567 380.913,73.3567 375.5,75.5C 374.682,78.1071 374.182,80.7737 374,83.5C 372,84.1667 370,84.8333 368,85.5C 367.807,91.6856 364.64,94.1856 358.5,93C 356.409,97.4597 353.076,98.6264 348.5,96.5C 346.02,97.242 343.687,98.242 341.5,99.5C 339.438,98.2705 337.271,97.2705 335,96.5C 333.596,96.5093 332.43,97.0093 331.5,98C 334.248,108.156 337.082,118.322 340,128.5C 340.808,130.579 340.641,132.579 339.5,134.5C 313.61,141.805 287.61,148.472 261.5,154.5C 256.809,135.07 251.809,115.736 246.5,96.5C 247.496,96.5858 248.329,96.2524 249,95.5C 249.122,93.563 249.955,92.2297 251.5,91.5C 251.018,92.4163 250.685,93.4163 250.5,94.5C 255.324,112.795 259.99,131.128 264.5,149.5C 288.182,143.494 311.849,137.494 335.5,131.5C 332.399,118.834 329.233,106.167 326,93.5C 323.26,92.7178 320.426,92.2178 317.5,92C 316.833,90 316.167,88 315.5,86C 313.341,85.088 311.175,84.2546 309,83.5C 308.503,81.1902 308.337,78.8568 308.5,76.5C 293.714,80.1227 279.048,84.1227 264.5,88.5C 265.031,86.3763 266.365,84.8763 268.5,84C 267.552,83.5172 266.552,83.3505 265.5,83.5C 278.028,80.031 290.695,76.531 303.5,73C 302.978,72.4387 302.645,71.772 302.5,71C 303.479,68.5667 304.145,66.0667 304.5,63.5C 306.027,63.573 307.027,62.9063 307.5,61.5C 309.929,64.1697 309.929,67.003 307.5,70C 311.981,72.061 313.648,75.561 312.5,80.5C 317.661,80.0903 320.327,82.4237 320.5,87.5C 322.857,87.3367 325.19,87.5034 327.5,88C 328.267,90.0529 329.6,91.5529 331.5,92.5C 335.364,90.7395 338.698,91.4061 341.5,94.5C 345.09,91.5488 349.09,90.7155 353.5,92C 355.223,88.1921 358.223,86.5254 362.5,87C 362.932,82.0673 365.598,79.9006 370.5,80.5C 369.391,75.5109 371.058,71.8443 375.5,69.5C 372.62,65.3974 373.287,61.8974 377.5,59C 373.353,56.0816 372.686,52.5816 375.5,48.5C 374.135,47.059 372.635,45.7256 371,44.5C 370.503,42.1902 370.337,39.8568 370.5,37.5C 365.663,37.8561 362.996,35.6894 362.5,31C 359.964,30.8138 357.631,30.3138 355.5,29.5C 358.688,29.3822 361.688,28.5489 364.5,27C 361.964,26.8138 359.631,26.3138 357.5,25.5 Z"/></g>
<g><path style="opacity:1" fill="#fdfbfa" d="M 351.5,64.5 C 356.159,64.0146 357.492,65.848 355.5,70C 350.728,70.8104 349.395,68.9771 351.5,64.5 Z"/></g>
<g><path style="opacity:1" fill="#bb865e" d="M 217.5,84.5 C 221.919,96.4899 225.586,108.823 228.5,121.5C 228.5,123.5 227.5,124.5 225.5,124.5C 222.317,113.431 218.984,102.431 215.5,91.5C 216.117,91.3893 216.617,91.056 217,90.5C 217.495,88.5273 217.662,86.5273 217.5,84.5 Z"/></g>
<g><path style="opacity:1" fill="#d59f74" d="M 293.5,91.5 C 307.494,89.9889 313.327,95.9889 311,109.5C 306.989,116.516 303.822,123.85 301.5,131.5C 299.345,131.628 297.345,131.128 295.5,130C 290.514,125.839 285.181,122.173 279.5,119C 270.927,110.169 271.593,102.169 281.5,95C 284.5,94.6667 287.5,94.3333 290.5,94C 291.571,93.1482 292.571,92.3149 293.5,91.5 Z"/></g>
<g><path style="opacity:1" fill="#fdfcfb" d="M 295.5,95.5 C 304.036,95.1996 307.87,99.1996 307,107.5C 304.088,113.658 300.921,119.658 297.5,125.5C 292.338,121.751 287.004,118.251 281.5,115C 275.905,108.958 276.572,103.625 283.5,99C 286.5,98.6667 289.5,98.3333 292.5,98C 293.571,97.1482 294.571,96.3149 295.5,95.5 Z"/></g>
<g><path style="opacity:1" fill="#c08c64" d="M 380.5,178.5 C 362.497,178.333 344.497,178.5 326.5,179C 324.119,179.223 322.453,180.39 321.5,182.5C 304.163,182.667 286.83,182.5 269.5,182C 268.483,180.951 268.316,179.784 269,178.5C 270.746,174.673 272.746,171.007 275,167.5C 277.192,165.765 279.692,164.598 282.5,164C 306.134,157.671 329.8,151.338 353.5,145C 355.323,140.154 353.656,138.488 348.5,140C 333.53,144.026 318.53,147.86 303.5,151.5C 303.062,151.565 302.728,151.399 302.5,151C 304.192,149.693 305.525,148.193 306.5,146.5C 332.006,139.538 357.673,132.705 383.5,126C 385.049,124.786 386.215,123.286 387,121.5C 387.5,106.504 387.667,91.5037 387.5,76.5C 383.759,77.4015 381.759,76.0681 381.5,72.5C 384.833,72.5 388.167,72.5 391.5,72.5C 391.667,89.5033 391.5,106.503 391,123.5C 389.888,126.278 388.055,128.445 385.5,130C 376.538,132.491 367.538,134.658 358.5,136.5C 358.443,138.884 358.777,141.218 359.5,143.5C 359.255,146.168 357.921,148.002 355.5,149C 330.367,155.96 305.201,162.793 280,169.5C 277.566,171.525 275.732,174.025 274.5,177C 310.002,177.167 345.336,177.667 380.5,178.5 Z"/></g>
<g><path style="opacity:1" fill="#d39c71" d="M 228.5,121.5 C 232.996,132.824 236.83,144.49 240,156.5C 240.833,158.667 242.333,160.167 244.5,161C 247.866,161.33 251.199,160.997 254.5,160C 271.852,155.496 289.185,150.996 306.5,146.5C 305.525,148.193 304.192,149.693 302.5,151C 302.728,151.399 303.062,151.565 303.5,151.5C 293.409,154.944 283.076,157.944 272.5,160.5C 268.468,166.702 264.635,173.035 261,179.5C 259.98,183.447 261.147,186.447 264.5,188.5C 263.646,189.632 263.646,190.965 264.5,192.5C 258.98,190.973 255.98,187.306 255.5,181.5C 258.413,175.179 261.746,169.012 265.5,163C 257.669,164.888 249.669,165.555 241.5,165C 240,163.5 238.5,162 237,160.5C 232.855,148.558 229.022,136.558 225.5,124.5C 227.5,124.5 228.5,123.5 228.5,121.5 Z"/></g>
<g><path style="opacity:1" fill="#fcfcfb" d="M 321.5,182.5 C 341.167,182.5 360.833,182.5 380.5,182.5C 380.795,184.735 380.461,186.735 379.5,188.5C 341.167,188.5 302.833,188.5 264.5,188.5C 261.147,186.447 259.98,183.447 261,179.5C 264.635,173.035 268.468,166.702 272.5,160.5C 283.076,157.944 293.409,154.944 303.5,151.5C 318.53,147.86 333.53,144.026 348.5,140C 353.656,138.488 355.323,140.154 353.5,145C 329.8,151.338 306.134,157.671 282.5,164C 279.692,164.598 277.192,165.765 275,167.5C 272.746,171.007 270.746,174.673 269,178.5C 268.316,179.784 268.483,180.951 269.5,182C 286.83,182.5 304.163,182.667 321.5,182.5 Z"/></g>
<g><path style="opacity:1" fill="#a26d46" d="M 380.5,178.5 C 383.853,179.512 385.52,181.846 385.5,185.5C 385.52,189.154 383.853,191.488 380.5,192.5C 350.831,192.667 321.165,192.5 291.5,192C 292.167,191.333 292.833,190.667 293.5,190C 322.336,189.832 351.003,189.332 379.5,188.5C 380.461,186.735 380.795,184.735 380.5,182.5C 360.833,182.5 341.167,182.5 321.5,182.5C 322.453,180.39 324.119,179.223 326.5,179C 344.497,178.5 362.497,178.333 380.5,178.5 Z"/></g>
<g><path style="opacity:1" fill="#c49674" d="M 264.5,188.5 C 302.833,188.5 341.167,188.5 379.5,188.5C 351.003,189.332 322.336,189.832 293.5,190C 292.833,190.667 292.167,191.333 291.5,192C 321.165,192.5 350.831,192.667 380.5,192.5C 341.931,193.829 303.264,193.829 264.5,192.5C 263.646,190.965 263.646,189.632 264.5,188.5 Z"/></g>
<g><path style="opacity:1" fill="#bb855d" d="M 274.5,196.5 C 289.627,197.091 294.46,204.425 289,218.5C 280.88,225.671 273.547,225.004 267,216.5C 263.662,207.527 266.162,200.86 274.5,196.5 Z"/></g>
<g><path style="opacity:1" fill="#fdfcfb" d="M 274.5,201.5 C 282.955,200.461 287.122,204.128 287,212.5C 284.549,218.089 280.383,219.922 274.5,218C 267.899,212.504 267.899,207.004 274.5,201.5 Z"/></g>
<g><path style="opacity:1" fill="#9b6843" d="M 357.5,196.5 C 369.705,196.533 374.871,202.533 373,214.5C 367.52,224.192 360.187,225.859 351,219.5C 344.717,209.392 346.884,201.726 357.5,196.5 Z"/></g>
<g><path style="opacity:1" fill="#fcfaf9" d="M 356.5,201.5 C 365.61,199.783 369.777,203.45 369,212.5C 366.598,218.092 362.431,219.925 356.5,218C 349.899,212.504 349.899,207.004 356.5,201.5 Z"/></g>
<g><path style="opacity:1" fill="#26519f" d="M 105.5,242.5 C 106.978,242.238 108.311,242.571 109.5,243.5C 108.098,244.842 108.431,245.676 110.5,246C 109.624,247.586 108.624,249.086 107.5,250.5C 108.341,253.251 107.341,255.418 104.5,257C 105.252,257.671 105.586,258.504 105.5,259.5C 104.833,260.833 104.167,262.167 103.5,263.5C 102.686,265.631 102.186,267.964 102,270.5C 101.333,271.833 100.333,272.833 99,273.5C 98.5078,274.549 98.6744,275.549 99.5,276.5C 98.376,277.914 97.376,279.414 96.5,281C 97.5536,282.388 97.7203,283.888 97,285.5C 94.9734,285.986 92.8067,285.986 90.5,285.5C 84.941,275.228 84.1076,264.562 88,253.5C 92.1844,247.138 98.0177,243.471 105.5,242.5 Z"/></g>
<g><path style="opacity:1" fill="#255da9" d="M 105.5,242.5 C 123.681,240.249 133.015,248.249 133.5,266.5C 128.658,268.41 123.658,268.91 118.5,268C 117.355,264.71 115.688,261.71 113.5,259C 110.739,258.278 108.073,258.445 105.5,259.5C 105.586,258.504 105.252,257.671 104.5,257C 107.341,255.418 108.341,253.251 107.5,250.5C 108.624,249.086 109.624,247.586 110.5,246C 108.431,245.676 108.098,244.842 109.5,243.5C 108.311,242.571 106.978,242.238 105.5,242.5 Z"/></g>
<g><path style="opacity:1" fill="#1aaaea" d="M 281.5,244.5 C 289.611,244.065 297.611,244.565 305.5,246C 302.659,247.582 301.659,249.749 302.5,252.5C 301.376,253.914 300.376,255.414 299.5,257C 300.728,258.49 300.728,259.99 299.5,261.5C 298.167,262.167 297.167,263.167 296.5,264.5C 295.833,271.678 295.167,279.011 294.5,286.5C 293.604,285.494 292.938,285.494 292.5,286.5C 294.036,290.461 292.702,292.294 288.5,292C 288.833,291.667 289.167,291.333 289.5,291C 288.5,290.333 287.5,290.333 286.5,291C 282.52,294.143 278.52,296.309 274.5,297.5C 273.12,297.038 272.453,296.038 272.5,294.5C 273.832,292.337 275.666,290.67 278,289.5C 278.333,275.167 278.667,260.833 279,246.5C 279.417,245.244 280.25,244.577 281.5,244.5 Z"/></g>
<g><path style="opacity:1" fill="#1ab0ef" d="M 281.5,244.5 C 290.657,243.342 299.991,243.176 309.5,244C 318.723,247.558 324.89,254.058 328,263.5C 328.333,272.167 328.667,280.833 329,289.5C 331.296,291.057 333.462,292.724 335.5,294.5C 333.823,296.76 331.657,298.427 329,299.5C 333.715,337.453 317.381,352.453 280,344.5C 278.864,329.581 278.031,314.581 277.5,299.5C 276.261,299.058 275.261,298.391 274.5,297.5C 278.52,296.309 282.52,294.143 286.5,291C 287.5,290.333 288.5,290.333 289.5,291C 289.167,291.333 288.833,291.667 288.5,292C 292.702,292.294 294.036,290.461 292.5,286.5C 292.938,285.494 293.604,285.494 294.5,286.5C 295.167,279.011 295.833,271.678 296.5,264.5C 296.333,284.836 296.5,305.169 297,325.5C 301.78,329.381 306.114,328.715 310,323.5C 310.667,304.167 310.667,284.833 310,265.5C 307.303,262.13 303.803,260.796 299.5,261.5C 300.728,259.99 300.728,258.49 299.5,257C 300.376,255.414 301.376,253.914 302.5,252.5C 301.659,249.749 302.659,247.582 305.5,246C 297.611,244.565 289.611,244.065 281.5,244.5 Z"/></g>
<g><path style="opacity:1" fill="#1292d7" d="M 231.5,245.5 C 238.2,245.17 244.866,245.503 251.5,246.5C 248.1,248.47 244.6,250.137 241,251.5C 240.333,253.167 240.333,254.833 241,256.5C 243.007,259.336 245.174,262.003 247.5,264.5C 246.963,265.741 246.296,266.908 245.5,268C 246.5,270.213 245.833,272.046 243.5,273.5C 244.167,274.5 244.833,275.5 245.5,276.5C 241.906,277.547 240.573,279.713 241.5,283C 239.889,285.21 239.222,287.71 239.5,290.5C 238.5,290.5 237.5,290.5 236.5,290.5C 236.33,291.822 236.663,292.989 237.5,294C 235.833,297.667 234.167,301.333 232.5,305C 232.815,307.098 232.815,309.098 232.5,311C 231.604,313.179 230.271,315.012 228.5,316.5C 229.108,318.684 228.441,320.684 226.5,322.5C 228.106,325.757 227.106,327.924 223.5,329C 224.536,333.412 223.536,337.412 220.5,341C 221.337,342.011 221.67,343.178 221.5,344.5C 219.5,344.5 217.5,344.5 215.5,344.5C 214.12,344.038 213.453,343.038 213.5,341.5C 215.694,328.64 218.028,315.807 220.5,303C 220.167,301.833 219.833,300.667 219.5,299.5C 217.354,298.444 215.688,296.944 214.5,295C 216.999,292.17 219.833,289.67 223,287.5C 225.465,275.243 227.465,262.909 229,250.5C 229.374,248.509 230.207,246.842 231.5,245.5 Z"/></g>
<g><path style="opacity:1" fill="#0dafee" d="M 416.5,244.5 C 421.762,244.195 426.928,244.529 432,245.5C 434.672,256.027 436.505,266.694 437.5,277.5C 438.5,277.5 439.5,277.5 440.5,277.5C 442.074,269.239 443.241,260.906 444,252.5C 444.21,249.766 445.044,247.266 446.5,245C 451.5,244.333 456.5,244.333 461.5,245C 462,245.5 462.5,246 463,246.5C 465.098,255.754 466.765,265.088 468,274.5C 469.857,278.38 471.19,278.046 472,273.5C 473.252,264.486 474.585,255.486 476,246.5C 476.5,246 477,245.5 477.5,245C 482.823,244.501 488.156,244.334 493.5,244.5C 492.444,259.443 490.444,274.276 487.5,289C 495.739,293.471 495.406,297.305 486.5,300.5C 483.531,314.691 481.031,329.024 479,343.5C 478.5,344 478,344.5 477.5,345C 472.249,345.804 467.082,345.637 462,344.5C 460.442,334.15 458.775,323.816 457,313.5C 456.424,310.876 455.09,310.209 453,311.5C 451.38,322.599 449.38,333.599 447,344.5C 442.252,345.635 437.419,345.802 432.5,345C 432,344.5 431.5,344 431,343.5C 428.504,329.54 426.171,315.54 424,301.5C 420.537,300.023 417.704,297.856 415.5,295C 416.688,293.056 418.354,291.556 420.5,290.5C 420.833,289.333 421.167,288.167 421.5,287C 419.435,274.108 417.101,261.274 414.5,248.5C 414.752,246.927 415.418,245.594 416.5,244.5 Z"/></g>
<g><path style="opacity:1" fill="#1d6fb8" d="M 164.5,258.5 C 163.761,258.369 163.094,258.536 162.5,259C 163.675,267.174 163.675,275.174 162.5,283C 161.728,284.221 160.728,285.221 159.5,286C 159.833,286.333 160.167,286.667 160.5,287C 159.67,288.747 158.67,290.413 157.5,292C 158.256,294.389 157.589,296.555 155.5,298.5C 156.326,299.451 156.492,300.451 156,301.5C 149.244,303.077 147.744,306.91 151.5,313C 150.046,315.418 149.212,317.918 149,320.5C 148.815,313.253 148.315,306.087 147.5,299C 148.815,297.605 148.481,296.605 146.5,296C 147.376,294.415 148.709,293.415 150.5,293C 148.598,277.682 147.931,261.849 148.5,245.5C 148.918,244.778 149.584,244.278 150.5,244C 154.5,243.333 158.5,243.333 162.5,244C 163,244.5 163.5,245 164,245.5C 164.499,249.821 164.666,254.154 164.5,258.5 Z"/></g>
<g><path style="opacity:1" fill="#fcfdfe" d="M 299.5,261.5 C 303.803,260.796 307.303,262.13 310,265.5C 310.667,284.833 310.667,304.167 310,323.5C 306.114,328.715 301.78,329.381 297,325.5C 296.5,305.169 296.333,284.836 296.5,264.5C 297.167,263.167 298.167,262.167 299.5,261.5 Z"/></g>
<g><path style="opacity:1" fill="#14afee" d="M 363.5,242.5 C 380.621,239.492 391.787,246.159 397,262.5C 397.333,271.5 397.667,280.5 398,289.5C 400.544,291.002 402.71,292.836 404.5,295C 402.71,297.164 400.544,298.998 398,300.5C 397.667,308.167 397.333,315.833 397,323.5C 392.667,341.926 381.167,349.092 362.5,345C 355.246,341.677 350.412,336.177 348,328.5C 347.667,319.167 347.333,309.833 347,300.5C 338.333,296.833 338.333,293.167 347,289.5C 347.07,278.761 347.737,268.094 349,257.5C 352.693,251.309 357.526,246.309 363.5,242.5 Z"/></g>
<g><path style="opacity:1" fill="#fdfdfe" d="M 368.5,260.5 C 372.684,259.704 375.85,261.037 378,264.5C 378.667,284.167 378.667,303.833 378,323.5C 375.947,327.292 372.781,328.458 368.5,327C 366.951,325.786 365.785,324.286 365,322.5C 364.333,303.5 364.333,284.5 365,265.5C 365.997,263.677 367.164,262.01 368.5,260.5 Z"/></g>
<g><path style="opacity:1" fill="#2761ab" d="M 103.5,263.5 C 102.31,276.381 107.977,283.214 120.5,284C 121.692,285.945 121.692,287.945 120.5,290C 121.315,291.643 122.315,293.143 123.5,294.5C 124.452,296.112 124.786,297.612 124.5,299C 122.616,302.889 120.949,306.723 119.5,310.5C 120.822,312.867 120.155,314.533 117.5,315.5C 113.383,305.849 106.216,300.849 96,300.5C 96.9044,297.974 97.2377,295.308 97,292.5C 94.6278,290.297 92.4611,287.963 90.5,285.5C 92.8067,285.986 94.9734,285.986 97,285.5C 97.7203,283.888 97.5536,282.388 96.5,281C 97.376,279.414 98.376,277.914 99.5,276.5C 98.6744,275.549 98.5078,274.549 99,273.5C 100.333,272.833 101.333,271.833 102,270.5C 102.186,267.964 102.686,265.631 103.5,263.5 Z"/></g>
<g><path style="opacity:1" fill="#1aa5e5" d="M 257.5,269.5 C 259.078,275.62 260.245,281.954 261,288.5C 263.853,290.161 266.353,292.161 268.5,294.5C 267.9,296.936 266.4,298.602 264,299.5C 265.22,312.872 267.053,326.205 269.5,339.5C 269.674,341.693 269.007,343.527 267.5,345C 262.833,345.667 258.167,345.667 253.5,345C 251.505,342.2 250.505,339.033 250.5,335.5C 251.315,334.571 252.148,333.571 253,332.5C 254.604,325.332 256.77,318.665 259.5,312.5C 259.167,311.833 258.833,311.167 258.5,310.5C 254.678,312.93 250.678,314.43 246.5,315C 250.213,313.149 253.547,310.816 256.5,308C 256.215,304.699 254.548,303.365 251.5,304C 254.021,309.771 253.521,309.937 250,304.5C 248.297,306.347 248.464,308.181 250.5,310C 247.56,310.886 246.56,310.052 247.5,307.5C 246.675,306.614 245.675,306.281 244.5,306.5C 245.301,304.958 245.634,303.292 245.5,301.5C 246.151,302.091 246.818,302.757 247.5,303.5C 249.583,302.041 251.75,300.708 254,299.5C 254.595,298.101 254.428,296.768 253.5,295.5C 255.589,293.555 256.256,291.389 255.5,289C 256.257,286.488 257.257,283.988 258.5,281.5C 257.726,277.535 257.393,273.535 257.5,269.5 Z"/></g>
<g><path style="opacity:1" fill="#1888cc" d="M 196.5,245.5 C 197.331,259.994 197.831,274.661 198,289.5C 206.667,293.167 206.667,296.833 198,300.5C 197.667,314.833 197.333,329.167 197,343.5C 196.5,344 196,344.5 195.5,345C 191.167,345.667 186.833,345.667 182.5,345C 182,344.5 181.5,344 181,343.5C 180.5,332.172 180.333,320.838 180.5,309.5C 181.329,317.657 181.829,325.99 182,334.5C 182.574,332.508 183.741,331.008 185.5,330C 185.152,327.945 185.819,325.945 187.5,324C 186.892,321.816 187.559,319.816 189.5,318C 188.054,315.507 188.721,313.673 191.5,312.5C 191.291,311.914 190.957,311.414 190.5,311C 192.167,307.333 193.833,303.667 195.5,300C 194.209,297.91 194.876,296.576 197.5,296C 196.975,295.308 196.308,294.808 195.5,294.5C 191.322,296.907 187.155,299.24 183,301.5C 182.5,301.167 182,300.833 181.5,300.5C 183.159,299.183 184.326,297.517 185,295.5C 186.011,296.337 187.178,296.67 188.5,296.5C 188.354,294.058 189.187,293.391 191,294.5C 193.761,293.501 195.094,291.501 195,288.5C 195.333,288.833 195.667,289.167 196,289.5C 196.498,286.518 196.665,283.518 196.5,280.5C 196.5,268.833 196.5,257.167 196.5,245.5 Z"/></g>
<g><path style="opacity:1" fill="#1480c7" d="M 196.5,280.5 C 196.665,283.518 196.498,286.518 196,289.5C 195.667,289.167 195.333,288.833 195,288.5C 195.094,291.501 193.761,293.501 191,294.5C 189.187,293.391 188.354,294.058 188.5,296.5C 187.178,296.67 186.011,296.337 185,295.5C 184.326,297.517 183.159,299.183 181.5,300.5C 182,300.833 182.5,301.167 183,301.5C 187.155,299.24 191.322,296.907 195.5,294.5C 196.308,294.808 196.975,295.308 197.5,296C 194.876,296.576 194.209,297.91 195.5,300C 193.833,303.667 192.167,307.333 190.5,311C 190.957,311.414 191.291,311.914 191.5,312.5C 188.721,313.673 188.054,315.507 189.5,318C 187.559,319.816 186.892,321.816 187.5,324C 185.819,325.945 185.152,327.945 185.5,330C 183.741,331.008 182.574,332.508 182,334.5C 181.829,325.99 181.329,317.657 180.5,309.5C 180.141,306.763 178.807,304.763 176.5,303.5C 177.778,301.456 177.612,299.456 176,297.5C 174.667,296.167 173.333,296.167 172,297.5C 169.665,294.178 170.332,293.178 174,294.5C 175.194,292.976 176.694,291.81 178.5,291C 178.972,285.729 181.639,284.229 186.5,286.5C 190.155,285.007 193.488,283.007 196.5,280.5 Z"/></g>
<g><path style="opacity:1" fill="#139add" d="M 231.5,245.5 C 238.321,244.345 245.321,244.179 252.5,245C 254.969,252.972 256.635,261.139 257.5,269.5C 257.393,273.535 257.726,277.535 258.5,281.5C 257.257,283.988 256.257,286.488 255.5,289C 256.256,291.389 255.589,293.555 253.5,295.5C 254.428,296.768 254.595,298.101 254,299.5C 251.75,300.708 249.583,302.041 247.5,303.5C 246.818,302.757 246.151,302.091 245.5,301.5C 245.436,297.78 244.936,294.114 244,290.5C 242.817,289.269 241.651,289.269 240.5,290.5C 238.59,295.342 238.09,300.342 239,305.5C 240.699,306.406 242.533,306.739 244.5,306.5C 245.675,306.281 246.675,306.614 247.5,307.5C 246.56,310.052 247.56,310.886 250.5,310C 248.464,308.181 248.297,306.347 250,304.5C 253.521,309.937 254.021,309.771 251.5,304C 254.548,303.365 256.215,304.699 256.5,308C 253.547,310.816 250.213,313.149 246.5,315C 250.678,314.43 254.678,312.93 258.5,310.5C 258.833,311.167 259.167,311.833 259.5,312.5C 256.77,318.665 254.604,325.332 253,332.5C 252.148,333.571 251.315,334.571 250.5,335.5C 251.439,325.602 247.106,321.436 237.5,323C 236.667,323.833 235.833,324.667 235,325.5C 233.721,331.45 232.721,337.45 232,343.5C 231.5,344 231,344.5 230.5,345C 225.316,345.816 220.316,345.65 215.5,344.5C 217.5,344.5 219.5,344.5 221.5,344.5C 221.67,343.178 221.337,342.011 220.5,341C 223.536,337.412 224.536,333.412 223.5,329C 227.106,327.924 228.106,325.757 226.5,322.5C 228.441,320.684 229.108,318.684 228.5,316.5C 230.271,315.012 231.604,313.179 232.5,311C 232.815,309.098 232.815,307.098 232.5,305C 234.167,301.333 235.833,297.667 237.5,294C 236.663,292.989 236.33,291.822 236.5,290.5C 237.5,290.5 238.5,290.5 239.5,290.5C 239.222,287.71 239.889,285.21 241.5,283C 240.573,279.713 241.906,277.547 245.5,276.5C 244.833,275.5 244.167,274.5 243.5,273.5C 245.833,272.046 246.5,270.213 245.5,268C 246.296,266.908 246.963,265.741 247.5,264.5C 245.174,262.003 243.007,259.336 241,256.5C 240.333,254.833 240.333,253.167 241,251.5C 244.6,250.137 248.1,248.47 251.5,246.5C 244.866,245.503 238.2,245.17 231.5,245.5 Z"/></g>
<g><path style="opacity:1" fill="#f1f9fc" d="M 245.5,301.5 C 245.634,303.292 245.301,304.958 244.5,306.5C 242.533,306.739 240.699,306.406 239,305.5C 238.09,300.342 238.59,295.342 240.5,290.5C 241.651,289.269 242.817,289.269 244,290.5C 244.936,294.114 245.436,297.78 245.5,301.5 Z"/></g>
<g><path style="opacity:1" fill="#256ab2" d="M 123.5,294.5 C 136.695,307.087 138.862,321.42 130,337.5C 124.929,343.581 118.429,346.248 110.5,345.5C 103.537,346.068 97.5373,344.068 92.5,339.5C 95.2186,339.603 97.8853,339.269 100.5,338.5C 104.947,335.396 109.614,332.562 114.5,330C 111.964,329.814 109.631,329.314 107.5,328.5C 115.798,328.304 119.131,323.971 117.5,315.5C 120.155,314.533 120.822,312.867 119.5,310.5C 120.949,306.723 122.616,302.889 124.5,299C 124.786,297.612 124.452,296.112 123.5,294.5 Z"/></g>
<g><path style="opacity:1" fill="#1d79c0" d="M 196.5,245.5 C 196.5,257.167 196.5,268.833 196.5,280.5C 193.488,283.007 190.155,285.007 186.5,286.5C 181.639,284.229 178.972,285.729 178.5,291C 176.694,291.81 175.194,292.976 174,294.5C 170.332,293.178 169.665,294.178 172,297.5C 173.333,296.167 174.667,296.167 176,297.5C 177.612,299.456 177.778,301.456 176.5,303.5C 173.482,303.335 170.482,303.502 167.5,304C 166.333,304.5 165.5,305.333 165,306.5C 164.667,318.833 164.333,331.167 164,343.5C 163.5,344 163,344.5 162.5,345C 158.167,345.667 153.833,345.667 149.5,345C 149,344.5 148.5,344 148,343.5C 147.667,329.167 147.333,314.833 147,300.5C 138.333,296.833 138.333,293.167 147,289.5C 147.169,274.661 147.669,259.994 148.5,245.5C 147.931,261.849 148.598,277.682 150.5,293C 148.709,293.415 147.376,294.415 146.5,296C 148.481,296.605 148.815,297.605 147.5,299C 148.315,306.087 148.815,313.253 149,320.5C 149.212,317.918 150.046,315.418 151.5,313C 147.744,306.91 149.244,303.077 156,301.5C 156.492,300.451 156.326,299.451 155.5,298.5C 157.589,296.555 158.256,294.389 157.5,292C 158.67,290.413 159.67,288.747 160.5,287C 160.167,286.667 159.833,286.333 159.5,286C 160.728,285.221 161.728,284.221 162.5,283C 163.675,275.174 163.675,267.174 162.5,259C 163.094,258.536 163.761,258.369 164.5,258.5C 164.334,266.507 164.5,274.507 165,282.5C 165.5,284.333 166.667,285.5 168.5,286C 172.244,286.929 175.744,286.429 179,284.5C 179.333,283.5 179.667,282.5 180,281.5C 180.333,269.5 180.667,257.5 181,245.5C 185.609,243.49 190.442,242.99 195.5,244C 196.056,244.383 196.389,244.883 196.5,245.5 Z"/></g>
<g><path style="opacity:1" fill="#255da9" d="M 107.5,328.5 C 109.631,329.314 111.964,329.814 114.5,330C 109.614,332.562 104.947,335.396 100.5,338.5C 97.8853,339.269 95.2186,339.603 92.5,339.5C 87.0233,333.244 84.19,325.911 84,317.5C 88.4043,314.671 93.2376,313.837 98.5,315C 100.669,317.819 102.169,320.986 103,324.5C 104.049,326.384 105.549,327.718 107.5,328.5 Z"/></g>
<g><path style="opacity:1" fill="#25509e" d="M 104.5,374.5 C 103.512,379.64 103.179,384.974 103.5,390.5C 102.5,390.5 101.5,390.5 100.5,390.5C 100.821,384.974 100.488,379.64 99.5,374.5C 92.7633,372.851 92.93,371.851 100,371.5C 101.833,371.833 103.667,372.167 105.5,372.5C 105.137,373.183 104.804,373.85 104.5,374.5 Z"/></g>
<g><path style="opacity:1" fill="#4f70b1" d="M 104.5,374.5 C 104.804,373.85 105.137,373.183 105.5,372.5C 103.667,372.167 101.833,371.833 100,371.5C 92.93,371.851 92.7633,372.851 99.5,374.5C 97.5,374.5 95.5,374.5 93.5,374.5C 93.5,373.167 93.5,371.833 93.5,370.5C 99.1667,370.5 104.833,370.5 110.5,370.5C 110.5,371.833 110.5,373.167 110.5,374.5C 108.5,374.5 106.5,374.5 104.5,374.5 Z"/></g>
<g><path style="opacity:1" fill="#3668af" d="M 115.5,370.5 C 117.288,370.215 118.955,370.548 120.5,371.5C 122.2,374.039 123.7,376.705 125,379.5C 125.848,376.302 127.348,373.469 129.5,371C 130.944,370.219 132.277,370.386 133.5,371.5C 131.582,375.004 129.416,378.337 127,381.5C 126.502,384.817 126.335,388.15 126.5,391.5C 125.167,391.5 123.833,391.5 122.5,391.5C 122.665,388.15 122.498,384.817 122,381.5C 119.579,377.929 117.413,374.262 115.5,370.5 Z"/></g>
<g><path style="opacity:1" fill="#6e9ccc" d="M 144.5,387.5 C 143.512,382.36 143.179,377.026 143.5,371.5C 142.5,371.5 141.5,371.5 140.5,371.5C 140.5,377.833 140.5,384.167 140.5,390.5C 144.833,390.5 149.167,390.5 153.5,390.5C 153.5,389.5 153.5,388.5 153.5,387.5C 154.434,388.568 154.768,389.901 154.5,391.5C 149.5,391.5 144.5,391.5 139.5,391.5C 139.5,384.5 139.5,377.5 139.5,370.5C 141.167,370.5 142.833,370.5 144.5,370.5C 144.5,376.167 144.5,381.833 144.5,387.5 Z"/></g>
<g><path style="opacity:1" fill="#1d66b1" d="M 144.5,387.5 C 147.5,387.5 150.5,387.5 153.5,387.5C 153.5,388.5 153.5,389.5 153.5,390.5C 149.167,390.5 144.833,390.5 140.5,390.5C 140.5,384.167 140.5,377.833 140.5,371.5C 141.5,371.5 142.5,371.5 143.5,371.5C 143.179,377.026 143.512,382.36 144.5,387.5 Z"/></g>
<g><path style="opacity:1" fill="#1e89cc" d="M 203.5,370.5 C 204.833,370.5 206.167,370.5 207.5,370.5C 207.5,377.5 207.5,384.5 207.5,391.5C 206.167,391.5 204.833,391.5 203.5,391.5C 203.5,384.5 203.5,377.5 203.5,370.5 Z"/></g>
<g><path style="opacity:1" fill="#3597d6" d="M 214.5,370.5 C 216.199,370.34 217.866,370.506 219.5,371C 221.876,374.919 224.376,378.752 227,382.5C 227.499,378.514 227.666,374.514 227.5,370.5C 228.833,370.5 230.167,370.5 231.5,370.5C 231.5,377.5 231.5,384.5 231.5,391.5C 229.278,391.822 227.444,391.155 226,389.5C 224,386.167 222,382.833 220,379.5C 219.501,383.486 219.334,387.486 219.5,391.5C 217.833,391.5 216.167,391.5 214.5,391.5C 214.5,384.5 214.5,377.5 214.5,370.5 Z"/></g>
<g><path style="opacity:1" fill="#2baae6" d="M 258.5,370.5 C 263.5,370.5 268.5,370.5 273.5,370.5C 273.5,371.833 273.5,373.167 273.5,374.5C 269.833,374.5 266.167,374.5 262.5,374.5C 262.5,375.833 262.5,377.167 262.5,378.5C 265.5,378.5 268.5,378.5 271.5,378.5C 271.5,379.833 271.5,381.167 271.5,382.5C 268.5,382.5 265.5,382.5 262.5,382.5C 262.5,384.167 262.5,385.833 262.5,387.5C 266.167,387.5 269.833,387.5 273.5,387.5C 273.5,388.833 273.5,390.167 273.5,391.5C 268.5,391.5 263.5,391.5 258.5,391.5C 258.5,384.5 258.5,377.5 258.5,370.5 Z"/></g>
<g><path style="opacity:1" fill="#2cb4ef" d="M 277.5,370.5 C 279.144,370.286 280.644,370.62 282,371.5C 283.368,376.324 285.035,380.991 287,385.5C 288.333,380.833 289.667,376.167 291,371.5C 292.356,370.62 293.856,370.286 295.5,370.5C 293.5,377.5 291.5,384.5 289.5,391.5C 287.533,391.739 285.699,391.406 284,390.5C 281.722,383.835 279.556,377.168 277.5,370.5 Z"/></g>
<g><path style="opacity:1" fill="#20b3f0" d="M 326.5,370.5 C 331.628,370.112 336.628,370.612 341.5,372C 342.617,375.073 342.784,378.24 342,381.5C 341.097,382.701 339.931,383.535 338.5,384C 339.743,385.154 340.743,386.488 341.5,388C 342.448,388.483 343.448,388.649 344.5,388.5C 344.5,389.5 344.5,390.5 344.5,391.5C 339.379,391.224 335.712,388.724 333.5,384C 332.552,383.517 331.552,383.351 330.5,383.5C 330.5,386.167 330.5,388.833 330.5,391.5C 329.167,391.5 327.833,391.5 326.5,391.5C 326.5,384.5 326.5,377.5 326.5,370.5 Z"/></g>
<g><path style="opacity:1" fill="#23b4f0" d="M 393.5,370.5 C 397.182,370.335 400.848,370.501 404.5,371C 405.337,372.011 405.67,373.178 405.5,374.5C 402.183,373.779 398.849,373.612 395.5,374C 394.62,375.356 394.286,376.856 394.5,378.5C 397.988,378.705 401.321,379.539 404.5,381C 407.333,384.663 407,387.996 403.5,391C 398.63,391.967 393.963,391.467 389.5,389.5C 390,388.119 391,387.453 392.5,387.5C 395.464,388.472 398.464,388.638 401.5,388C 402.833,386.667 402.833,385.333 401.5,384C 397.599,383.324 394.099,381.824 391,379.5C 389.779,375.718 390.613,372.718 393.5,370.5 Z"/></g>
<g><path style="opacity:1" fill="#15b1ef" d="M 413.5,370.5 C 414.833,370.5 416.167,370.5 417.5,370.5C 417.5,373.167 417.5,375.833 417.5,378.5C 420.167,378.5 422.833,378.5 425.5,378.5C 425.5,375.833 425.5,373.167 425.5,370.5C 426.833,370.5 428.167,370.5 429.5,370.5C 429.5,377.5 429.5,384.5 429.5,391.5C 428.167,391.5 426.833,391.5 425.5,391.5C 425.5,388.5 425.5,385.5 425.5,382.5C 422.833,382.5 420.167,382.5 417.5,382.5C 417.5,385.5 417.5,388.5 417.5,391.5C 416.167,391.5 414.833,391.5 413.5,391.5C 413.5,384.5 413.5,377.5 413.5,370.5 Z"/></g>
<g><path style="opacity:1" fill="#2bb5f0" d="M 439.5,370.5 C 443.182,370.335 446.848,370.501 450.5,371C 452,371.833 453.167,373 454,374.5C 454.323,379.866 454.823,385.199 455.5,390.5C 453.61,390.703 452.11,390.037 451,388.5C 448.091,391.394 444.591,392.227 440.5,391C 435.679,387.399 435.346,383.399 439.5,379C 442.688,377.684 446.022,377.184 449.5,377.5C 449.67,376.178 449.337,375.011 448.5,374C 445.151,373.612 441.817,373.779 438.5,374.5C 438.433,373.041 438.766,371.708 439.5,370.5 Z"/></g>
<g><path style="opacity:1" fill="#15b0ef" d="M 474.5,371.5 C 477.204,371.67 478.871,373.003 479.5,375.5C 479.97,378.346 479.137,380.679 477,382.5C 476.802,380.618 476.302,378.952 475.5,377.5C 475.423,376.25 474.756,375.417 473.5,375C 471.527,374.505 469.527,374.338 467.5,374.5C 466.674,378.982 466.174,383.649 466,388.5C 465.586,388.957 465.086,389.291 464.5,389.5C 463.504,383.537 463.171,377.537 463.5,371.5C 467.167,371.5 470.833,371.5 474.5,371.5 Z"/></g>
<g><path style="opacity:1" fill="#2ab5f0" d="M 491.5,370.5 C 501.499,368.508 506.166,372.508 505.5,382.5C 500.833,382.5 496.167,382.5 491.5,382.5C 490.965,385.238 491.965,387.072 494.5,388C 497.826,388.172 501.159,388.005 504.5,387.5C 504.719,388.675 504.386,389.675 503.5,390.5C 489.897,394.396 484.397,389.396 487,375.5C 488.059,373.341 489.559,371.674 491.5,370.5 Z"/></g>
<g><path style="opacity:1" fill="#829bc8" d="M 99.5,374.5 C 100.488,379.64 100.821,384.974 100.5,390.5C 101.5,390.5 102.5,390.5 103.5,390.5C 103.179,384.974 103.512,379.64 104.5,374.5C 104.5,380.167 104.5,385.833 104.5,391.5C 102.833,391.5 101.167,391.5 99.5,391.5C 99.5,385.833 99.5,380.167 99.5,374.5 Z"/></g>
<g><path style="opacity:1" fill="#f1fafe" d="M 330.5,374.5 C 332.857,374.337 335.19,374.503 337.5,375C 338.833,376.667 338.833,378.333 337.5,380C 335.19,380.497 332.857,380.663 330.5,380.5C 330.5,378.5 330.5,376.5 330.5,374.5 Z"/></g>
<g><path style="opacity:1" fill="#fbfdfe" d="M 467.5,374.5 C 469.527,374.338 471.527,374.505 473.5,375C 474.756,375.417 475.423,376.25 475.5,377.5C 475.665,380.518 475.498,383.518 475,386.5C 472.619,387.435 470.119,387.768 467.5,387.5C 467.5,383.167 467.5,378.833 467.5,374.5 Z"/></g>
<g><path style="opacity:1" fill="#f1fafe" d="M 493.5,373.5 C 495.989,373.298 498.323,373.798 500.5,375C 501.337,376.011 501.67,377.178 501.5,378.5C 498.167,378.5 494.833,378.5 491.5,378.5C 491.392,376.486 492.058,374.82 493.5,373.5 Z"/></g>
<g><path style="opacity:1" fill="#35509b" d="M 75.5,370.5 C 79.1817,370.335 82.8484,370.501 86.5,371C 87.8413,372.826 87.3413,373.993 85,374.5C 82.5472,373.507 80.0472,373.34 77.5,374C 76.6198,375.356 76.2865,376.856 76.5,378.5C 79.946,378.889 83.2794,379.722 86.5,381C 89.3428,384.619 89.0095,387.952 85.5,391C 80.6301,391.967 75.9634,391.467 71.5,389.5C 71.9996,388.119 72.9996,387.453 74.5,387.5C 77.4642,388.472 80.4642,388.638 83.5,388C 84.8333,386.667 84.8333,385.333 83.5,384C 79.6454,383.236 76.1454,381.736 73,379.5C 71.9271,375.9 72.7605,372.9 75.5,370.5 Z"/></g>
<g><path style="opacity:1" fill="#2eb5f0" d="M 347.5,371.5 C 348.946,370.387 350.613,370.22 352.5,371C 354.142,373.786 355.642,376.619 357,379.5C 358.358,376.619 359.858,373.786 361.5,371C 363.167,370.333 364.833,370.333 366.5,371C 360.896,376.709 358.563,383.542 359.5,391.5C 357.833,391.5 356.167,391.5 354.5,391.5C 355.522,383.566 353.189,376.899 347.5,371.5 Z"/></g>
<g><path style="opacity:1" fill="#f1fafe" d="M 442.5,381.5 C 444.833,381.5 447.167,381.5 449.5,381.5C 450.517,385.789 448.85,388.122 444.5,388.5C 440.167,387.172 439.501,384.838 442.5,381.5 Z"/></g>
<g><path style="opacity:1" fill="#2e7abf" d="M 163.5,370.5 C 173.397,368.596 178.397,372.596 178.5,382.5C 173.5,382.5 168.5,382.5 163.5,382.5C 162.965,385.238 163.965,387.072 166.5,388C 169.826,388.172 173.159,388.005 176.5,387.5C 176.64,389.124 175.973,390.29 174.5,391C 161.918,394.084 156.751,389.251 159,376.5C 159.804,373.854 161.304,371.854 163.5,370.5 Z"/></g>
<g><path style="opacity:1" fill="#83b2da" d="M 163.5,376.5 C 166.337,378.402 169.671,379.069 173.5,378.5C 170.038,379.482 166.371,379.815 162.5,379.5C 162.263,378.209 162.596,377.209 163.5,376.5 Z"/></g>
<g><path style="opacity:1" fill="#f1f6fb" d="M 173.5,378.5 C 169.671,379.069 166.337,378.402 163.5,376.5C 165.407,373.668 168.073,372.834 171.5,374C 173.037,375.11 173.703,376.61 173.5,378.5 Z"/></g>
<g><path style="opacity:1" fill="#2eb5ef" d="M 305.5,370.5 C 315.809,368.133 320.809,372.133 320.5,382.5C 315.5,382.5 310.5,382.5 305.5,382.5C 304.965,385.238 305.965,387.072 308.5,388C 311.656,388.603 314.656,388.103 317.5,386.5C 318.83,388.347 318.497,389.847 316.5,391C 303.478,393.819 298.311,388.652 301,375.5C 302.059,373.341 303.559,371.674 305.5,370.5 Z"/></g>
<g><path style="opacity:1" fill="#f0fafd" d="M 307.5,373.5 C 312.175,372.339 314.841,374.006 315.5,378.5C 312.167,378.5 308.833,378.5 305.5,378.5C 305.392,376.486 306.058,374.82 307.5,373.5 Z"/></g>
<g><path style="opacity:1" fill="#49bef1" d="M 474.5,371.5 C 470.833,371.5 467.167,371.5 463.5,371.5C 463.171,377.537 463.504,383.537 464.5,389.5C 465.086,389.291 465.586,388.957 466,388.5C 466.174,383.649 466.674,378.982 467.5,374.5C 467.5,378.833 467.5,383.167 467.5,387.5C 470.119,387.768 472.619,387.435 475,386.5C 475.498,383.518 475.665,380.518 475.5,377.5C 476.302,378.952 476.802,380.618 477,382.5C 479.137,380.679 479.97,378.346 479.5,375.5C 480.638,378.304 480.805,381.304 480,384.5C 479.837,386.676 479.004,388.509 477.5,390C 472.599,391.325 467.599,391.825 462.5,391.5C 462.5,384.5 462.5,377.5 462.5,370.5C 466.702,370.183 470.702,370.517 474.5,371.5 Z"/></g>
</svg>
